<svg width="100" height="100" viewBox="0 0 100 100" fill="none" xmlns="http://www.w3.org/2000/svg">
<rect width="100" height="100" fill="#1E2235"/>
<rect x="22" y="12" width="56" height="56" rx="16" fill="#1E2235"/>
<path d="M62.3516 52H57.3242V34C57.3242 33.6484 57.2539 33.3203 57.1133 33.0156C56.9844 32.7109 56.8027 32.4473 56.5684 32.2246C56.3457 31.9902 56.082 31.8086 55.7773 31.6797C55.4727 31.5508 55.1445 31.4863 54.793 31.4863C54.4414 31.4863 54.1133 31.5508 53.8086 31.6797C53.5039 31.8086 53.2344 31.9902 53 32.2246C52.7773 32.4473 52.6016 32.7109 52.4727 33.0156C52.3438 33.3203 52.2793 33.6484 52.2793 34V52H47.2344V34C47.2344 33.6484 47.1699 33.3203 47.041 33.0156C46.9121 32.7109 46.7305 32.4473 46.4961 32.2246C46.2734 31.9902 46.0098 31.8086 45.7051 31.6797C45.4004 31.5508 45.0723 31.4863 44.7207 31.4863C44.3691 31.4863 44.041 31.5508 43.7363 31.6797C43.4316 31.8086 43.1621 31.9902 42.9277 32.2246C42.7051 32.4473 42.5293 32.7109 42.4004 33.0156C42.2715 33.3203 42.207 33.6484 42.207 34V52H37.1621V34C37.1621 32.957 37.3555 31.9785 37.7422 31.0645C38.1406 30.1387 38.6797 29.3359 39.3594 28.6562C40.0508 27.9648 40.8535 27.4258 41.7676 27.0391C42.6934 26.6406 43.6777 26.4414 44.7207 26.4414C45.6582 26.4414 46.5605 26.6113 47.4277 26.9512C48.2949 27.2793 49.0742 27.7598 49.7656 28.3926C50.457 27.7598 51.2305 27.2793 52.0859 26.9512C52.9531 26.6113 53.8555 26.4414 54.793 26.4414C55.8359 26.4414 56.8145 26.6406 57.7285 27.0391C58.6543 27.4258 59.457 27.9648 60.1367 28.6562C60.8281 29.3359 61.3672 30.1387 61.7539 31.0645C62.1523 31.9785 62.3516 32.957 62.3516 34V52Z" fill="#61DAFB"/>
<path d="M29.5977 67H28.2012V62C28.2012 61.9023 28.1816 61.8112 28.1426 61.7266C28.1068 61.6419 28.0563 61.5687 27.9912 61.5068C27.9294 61.4417 27.8561 61.3913 27.7715 61.3555C27.6868 61.3197 27.5957 61.3018 27.498 61.3018C27.4004 61.3018 27.3092 61.3197 27.2246 61.3555C27.14 61.3913 27.0651 61.4417 27 61.5068C26.9382 61.5687 26.8893 61.6419 26.8535 61.7266C26.8177 61.8112 26.7998 61.9023 26.7998 62V67H25.3984V62C25.3984 61.9023 25.3805 61.8112 25.3447 61.7266C25.3089 61.6419 25.2585 61.5687 25.1934 61.5068C25.1315 61.4417 25.0583 61.3913 24.9736 61.3555C24.889 61.3197 24.7979 61.3018 24.7002 61.3018C24.6025 61.3018 24.5114 61.3197 24.4268 61.3555C24.3421 61.3913 24.2673 61.4417 24.2021 61.5068C24.1403 61.5687 24.0915 61.6419 24.0557 61.7266C24.0199 61.8112 24.002 61.9023 24.002 62V67H22.6006V62C22.6006 61.7103 22.6543 61.4385 22.7617 61.1846C22.8724 60.9274 23.0221 60.7044 23.2109 60.5156C23.403 60.3236 23.626 60.1738 23.8799 60.0664C24.137 59.9557 24.4105 59.9004 24.7002 59.9004C24.9606 59.9004 25.2113 59.9476 25.4521 60.042C25.693 60.1331 25.9095 60.2666 26.1016 60.4424C26.2936 60.2666 26.5085 60.1331 26.7461 60.042C26.987 59.9476 27.2376 59.9004 27.498 59.9004C27.7878 59.9004 28.0596 59.9557 28.3135 60.0664C28.5706 60.1738 28.7936 60.3236 28.9824 60.5156C29.1745 60.7044 29.3242 60.9274 29.4316 61.1846C29.5423 61.4385 29.5977 61.7103 29.5977 62V67ZM35.7061 64.3389C35.7061 64.7295 35.6361 65.0941 35.4961 65.4326C35.3561 65.7679 35.1657 66.0592 34.9248 66.3066C34.6839 66.5508 34.4007 66.7445 34.0752 66.8877C33.7529 67.0277 33.4062 67.0977 33.0352 67.0977C32.6673 67.0977 32.3206 67.0277 31.9951 66.8877C31.6729 66.7445 31.3896 66.5508 31.1455 66.3066C30.9046 66.0592 30.7142 65.7679 30.5742 65.4326C30.4342 65.0941 30.3643 64.7295 30.3643 64.3389C30.3643 63.9417 30.4342 63.5739 30.5742 63.2354C30.7142 62.8968 30.9046 62.6055 31.1455 62.3613C31.3896 62.1139 31.6729 61.9202 31.9951 61.7803C32.3206 61.6403 32.6673 61.5703 33.0352 61.5703C33.4062 61.5703 33.7529 61.637 34.0752 61.7705C34.4007 61.9007 34.6839 62.0879 34.9248 62.332C35.1657 62.5729 35.3561 62.8643 35.4961 63.2061C35.6361 63.5446 35.7061 63.9222 35.7061 64.3389ZM34.3633 64.3389C34.3633 64.124 34.3275 63.9303 34.2559 63.7578C34.1875 63.582 34.0931 63.4323 33.9727 63.3086C33.8522 63.1816 33.7106 63.0856 33.5479 63.0205C33.3883 62.9521 33.2174 62.918 33.0352 62.918C32.8529 62.918 32.6803 62.9521 32.5176 63.0205C32.3581 63.0856 32.2181 63.1816 32.0977 63.3086C31.9805 63.4323 31.8877 63.582 31.8193 63.7578C31.751 63.9303 31.7168 64.124 31.7168 64.3389C31.7168 64.5407 31.751 64.7279 31.8193 64.9004C31.8877 65.0729 31.9805 65.2227 32.0977 65.3496C32.2181 65.4766 32.3581 65.5775 32.5176 65.6523C32.6803 65.724 32.8529 65.7598 33.0352 65.7598C33.2174 65.7598 33.3883 65.7256 33.5479 65.6572C33.7106 65.5889 33.8522 65.4928 33.9727 65.3691C34.0931 65.2454 34.1875 65.0957 34.2559 64.9199C34.3275 64.7441 34.3633 64.5505 34.3633 64.3389ZM37.7715 67L35.7793 61.7705H37.2979L38.4404 65.0322L39.5781 61.7705H41.1016L39.1094 67H37.7715ZM43.1816 60.3496C43.1816 60.4733 43.1572 60.5889 43.1084 60.6963C43.0628 60.8037 42.9993 60.8981 42.918 60.9795C42.8366 61.0576 42.7406 61.1211 42.6299 61.1699C42.5225 61.2155 42.4069 61.2383 42.2832 61.2383C42.1595 61.2383 42.0423 61.2155 41.9316 61.1699C41.8242 61.1211 41.7298 61.0576 41.6484 60.9795C41.5703 60.8981 41.5068 60.8037 41.458 60.6963C41.4124 60.5889 41.3896 60.4733 41.3896 60.3496C41.3896 60.2292 41.4124 60.1152 41.458 60.0078C41.5068 59.8971 41.5703 59.8027 41.6484 59.7246C41.7298 59.6432 41.8242 59.5798 41.9316 59.5342C42.0423 59.4854 42.1595 59.4609 42.2832 59.4609C42.4069 59.4609 42.5225 59.4854 42.6299 59.5342C42.7406 59.5798 42.8366 59.6432 42.918 59.7246C42.9993 59.8027 43.0628 59.8971 43.1084 60.0078C43.1572 60.1152 43.1816 60.2292 43.1816 60.3496ZM42.9521 67H41.6094V61.7705H42.9521V67ZM46.0527 65.7207C46.1048 65.737 46.1569 65.7484 46.209 65.7549C46.2611 65.7581 46.3132 65.7598 46.3652 65.7598C46.4954 65.7598 46.6208 65.7419 46.7412 65.7061C46.8617 65.6702 46.974 65.6198 47.0781 65.5547C47.1855 65.4863 47.2799 65.4049 47.3613 65.3105C47.446 65.2129 47.5143 65.1055 47.5664 64.9883L48.543 65.9697C48.4193 66.1455 48.276 66.3034 48.1133 66.4434C47.9538 66.5833 47.7796 66.7021 47.5908 66.7998C47.4053 66.8975 47.2083 66.9707 47 67.0195C46.7949 67.0716 46.5833 67.0977 46.3652 67.0977C45.9974 67.0977 45.6507 67.0293 45.3252 66.8926C45.0029 66.7559 44.7197 66.5654 44.4756 66.3213C44.2347 66.0771 44.0443 65.7874 43.9043 65.4521C43.7643 65.1136 43.6943 64.7425 43.6943 64.3389C43.6943 63.9255 43.7643 63.5479 43.9043 63.2061C44.0443 62.8643 44.2347 62.5729 44.4756 62.332C44.7197 62.0911 45.0029 61.904 45.3252 61.7705C45.6507 61.637 45.9974 61.5703 46.3652 61.5703C46.5833 61.5703 46.7965 61.5964 47.0049 61.6484C47.2132 61.7005 47.4102 61.7754 47.5957 61.873C47.7845 61.9707 47.9603 62.0911 48.123 62.2344C48.2858 62.3743 48.429 62.5322 48.5527 62.708L46.0527 65.7207ZM46.7363 62.9717C46.6745 62.9489 46.6126 62.9342 46.5508 62.9277C46.4922 62.9212 46.4303 62.918 46.3652 62.918C46.1829 62.918 46.0104 62.9521 45.8477 63.0205C45.6882 63.0856 45.5482 63.18 45.4277 63.3037C45.3105 63.4274 45.2178 63.5771 45.1494 63.7529C45.0811 63.9255 45.0469 64.1208 45.0469 64.3389C45.0469 64.3877 45.0485 64.443 45.0518 64.5049C45.0583 64.5667 45.0664 64.6302 45.0762 64.6953C45.0892 64.7572 45.1038 64.8174 45.1201 64.876C45.1364 64.9346 45.1576 64.9867 45.1836 65.0322L46.7363 62.9717ZM53.5723 67H52.1709V59.998H57.0732V61.3994H53.5723V62.8008H55.6719V64.2021H53.5723V67ZM59.2266 60.3496C59.2266 60.4733 59.2021 60.5889 59.1533 60.6963C59.1077 60.8037 59.0443 60.8981 58.9629 60.9795C58.8815 61.0576 58.7855 61.1211 58.6748 61.1699C58.5674 61.2155 58.4518 61.2383 58.3281 61.2383C58.2044 61.2383 58.0872 61.2155 57.9766 61.1699C57.8691 61.1211 57.7747 61.0576 57.6934 60.9795C57.6152 60.8981 57.5518 60.8037 57.5029 60.6963C57.4574 60.5889 57.4346 60.4733 57.4346 60.3496C57.4346 60.2292 57.4574 60.1152 57.5029 60.0078C57.5518 59.8971 57.6152 59.8027 57.6934 59.7246C57.7747 59.6432 57.8691 59.5798 57.9766 59.5342C58.0872 59.4854 58.2044 59.4609 58.3281 59.4609C58.4518 59.4609 58.5674 59.4854 58.6748 59.5342C58.7855 59.5798 58.8815 59.6432 58.9629 59.7246C59.0443 59.8027 59.1077 59.8971 59.1533 60.0078C59.2021 60.1152 59.2266 60.2292 59.2266 60.3496ZM58.9971 67H57.6543V61.7705H58.9971V67ZM61.3506 67H60.0176V61.7705H60.3398L60.7793 62.2783C60.9941 62.083 61.2367 61.9333 61.5068 61.8291C61.7803 61.7217 62.0651 61.668 62.3613 61.668C62.6803 61.668 62.9814 61.7298 63.2646 61.8535C63.5479 61.974 63.7952 62.1416 64.0068 62.3564C64.2184 62.568 64.3844 62.8171 64.5049 63.1035C64.6286 63.3867 64.6904 63.6895 64.6904 64.0117V67H63.3574V64.0117C63.3574 63.875 63.3314 63.7464 63.2793 63.626C63.2272 63.5023 63.1556 63.3949 63.0645 63.3037C62.9733 63.2126 62.8675 63.141 62.7471 63.0889C62.6266 63.0368 62.498 63.0107 62.3613 63.0107C62.2214 63.0107 62.0895 63.0368 61.9658 63.0889C61.8421 63.141 61.7347 63.2126 61.6436 63.3037C61.5524 63.3949 61.4808 63.5023 61.4287 63.626C61.3766 63.7464 61.3506 63.875 61.3506 64.0117V67ZM70.6963 67H70.374L69.8564 66.2822C69.7295 66.3962 69.5944 66.5036 69.4512 66.6045C69.3112 66.7021 69.1631 66.7884 69.0068 66.8633C68.8506 66.9349 68.6895 66.9919 68.5234 67.0342C68.3607 67.0765 68.1947 67.0977 68.0254 67.0977C67.6576 67.0977 67.3109 67.0293 66.9854 66.8926C66.6631 66.7526 66.3799 66.5605 66.1357 66.3164C65.8949 66.069 65.7044 65.7777 65.5645 65.4424C65.4245 65.1038 65.3545 64.736 65.3545 64.3389C65.3545 63.945 65.4245 63.5788 65.5645 63.2402C65.7044 62.9017 65.8949 62.6087 66.1357 62.3613C66.3799 62.1139 66.6631 61.9202 66.9854 61.7803C67.3109 61.6403 67.6576 61.5703 68.0254 61.5703C68.1426 61.5703 68.263 61.5801 68.3867 61.5996C68.5137 61.6191 68.6357 61.6517 68.7529 61.6973C68.8734 61.7396 68.9857 61.7965 69.0898 61.8682C69.194 61.9398 69.2819 62.0277 69.3535 62.1318V59.6904H70.6963V67ZM69.3535 64.3389C69.3535 64.1566 69.3177 63.9808 69.2461 63.8115C69.1777 63.639 69.0833 63.4876 68.9629 63.3574C68.8424 63.224 68.7008 63.1182 68.5381 63.04C68.3786 62.9587 68.2077 62.918 68.0254 62.918C67.8431 62.918 67.6706 62.9505 67.5078 63.0156C67.3483 63.0807 67.2083 63.1751 67.0879 63.2988C66.9707 63.4193 66.8779 63.5674 66.8096 63.7432C66.7412 63.9189 66.707 64.1175 66.707 64.3389C66.707 64.5309 66.7412 64.7132 66.8096 64.8857C66.8779 65.0583 66.9707 65.2096 67.0879 65.3398C67.2083 65.4701 67.3483 65.5726 67.5078 65.6475C67.6706 65.7223 67.8431 65.7598 68.0254 65.7598C68.2077 65.7598 68.3786 65.7207 68.5381 65.6426C68.7008 65.5612 68.8424 65.4554 68.9629 65.3252C69.0833 65.1917 69.1777 65.0404 69.2461 64.8711C69.3177 64.6986 69.3535 64.5212 69.3535 64.3389ZM73.7969 65.7207C73.849 65.737 73.901 65.7484 73.9531 65.7549C74.0052 65.7581 74.0573 65.7598 74.1094 65.7598C74.2396 65.7598 74.3649 65.7419 74.4854 65.7061C74.6058 65.6702 74.7181 65.6198 74.8223 65.5547C74.9297 65.4863 75.0241 65.4049 75.1055 65.3105C75.1901 65.2129 75.2585 65.1055 75.3105 64.9883L76.2871 65.9697C76.1634 66.1455 76.0202 66.3034 75.8574 66.4434C75.6979 66.5833 75.5238 66.7021 75.335 66.7998C75.1494 66.8975 74.9525 66.9707 74.7441 67.0195C74.5391 67.0716 74.3275 67.0977 74.1094 67.0977C73.7415 67.0977 73.3949 67.0293 73.0693 66.8926C72.7471 66.7559 72.4639 66.5654 72.2197 66.3213C71.9788 66.0771 71.7884 65.7874 71.6484 65.4521C71.5085 65.1136 71.4385 64.7425 71.4385 64.3389C71.4385 63.9255 71.5085 63.5479 71.6484 63.2061C71.7884 62.8643 71.9788 62.5729 72.2197 62.332C72.4639 62.0911 72.7471 61.904 73.0693 61.7705C73.3949 61.637 73.7415 61.5703 74.1094 61.5703C74.3275 61.5703 74.5407 61.5964 74.749 61.6484C74.9574 61.7005 75.1543 61.7754 75.3398 61.873C75.5286 61.9707 75.7044 62.0911 75.8672 62.2344C76.0299 62.3743 76.1732 62.5322 76.2969 62.708L73.7969 65.7207ZM74.4805 62.9717C74.4186 62.9489 74.3568 62.9342 74.2949 62.9277C74.2363 62.9212 74.1745 62.918 74.1094 62.918C73.9271 62.918 73.7546 62.9521 73.5918 63.0205C73.4323 63.0856 73.2923 63.18 73.1719 63.3037C73.0547 63.4274 72.9619 63.5771 72.8936 63.7529C72.8252 63.9255 72.791 64.1208 72.791 64.3389C72.791 64.3877 72.7926 64.443 72.7959 64.5049C72.8024 64.5667 72.8105 64.6302 72.8203 64.6953C72.8333 64.7572 72.848 64.8174 72.8643 64.876C72.8805 64.9346 72.9017 64.9867 72.9277 65.0322L74.4805 62.9717ZM78.3037 67H76.9707V61.7705H77.293L77.7324 62.3906C77.9473 62.1953 78.1914 62.0456 78.4648 61.9414C78.7383 61.834 79.0215 61.7803 79.3145 61.7803H80.4912V63.1084H79.3145C79.1745 63.1084 79.0426 63.1344 78.9189 63.1865C78.7952 63.2386 78.6878 63.3102 78.5967 63.4014C78.5055 63.4925 78.4339 63.5999 78.3818 63.7236C78.3298 63.8473 78.3037 63.9792 78.3037 64.1191V67Z" fill="#61DAFB"/>
<path d="M31.125 71.9502C31.125 72.0951 31.0973 72.231 31.042 72.3579C30.9867 72.4849 30.911 72.5964 30.8149 72.6924C30.7205 72.7868 30.6099 72.8617 30.4829 72.917C30.356 72.9723 30.2201 73 30.0752 73H28.3247V69.499H30.0752C30.2201 69.499 30.356 69.5267 30.4829 69.582C30.6099 69.6374 30.7205 69.7131 30.8149 69.8091C30.911 69.9035 30.9867 70.0142 31.042 70.1411C31.0973 70.2681 31.125 70.404 31.125 70.5488C31.125 70.6139 31.116 70.6807 31.0981 70.749C31.0802 70.8174 31.055 70.8833 31.0225 70.9468C30.9899 71.0103 30.9508 71.068 30.9053 71.1201C30.8597 71.1722 30.8092 71.2153 30.7539 71.2495C30.8109 71.2804 30.8621 71.3228 30.9077 71.3765C30.9533 71.4285 30.9924 71.4863 31.0249 71.5498C31.0575 71.6133 31.0819 71.68 31.0981 71.75C31.116 71.8184 31.125 71.8851 31.125 71.9502ZM29.0254 72.2993H30.0752C30.124 72.2993 30.1696 72.2904 30.2119 72.2725C30.2542 72.2546 30.2909 72.2301 30.3218 72.1992C30.3543 72.1667 30.3796 72.1292 30.3975 72.0869C30.4154 72.0446 30.4243 71.999 30.4243 71.9502C30.4243 71.9014 30.4154 71.8558 30.3975 71.8135C30.3796 71.7712 30.3543 71.7345 30.3218 71.7036C30.2909 71.6711 30.2542 71.6458 30.2119 71.6279C30.1696 71.61 30.124 71.6011 30.0752 71.6011H29.0254V72.2993ZM29.0254 70.9004H30.0752C30.124 70.9004 30.1696 70.8914 30.2119 70.8735C30.2542 70.8556 30.2909 70.8312 30.3218 70.8003C30.3543 70.7677 30.3796 70.7303 30.3975 70.688C30.4154 70.644 30.4243 70.5977 30.4243 70.5488C30.4243 70.5 30.4154 70.4544 30.3975 70.4121C30.3796 70.3698 30.3543 70.3332 30.3218 70.3022C30.2909 70.2697 30.2542 70.2445 30.2119 70.2266C30.1696 70.2087 30.124 70.1997 30.0752 70.1997H29.0254V70.9004ZM32.2139 73.9961V73.3247L32.585 73.3296C32.6501 73.3296 32.7127 73.319 32.7729 73.2979C32.8332 73.2767 32.8885 73.2474 32.939 73.21C32.991 73.1725 33.0366 73.1278 33.0757 73.0757C33.1147 73.0252 33.1465 72.9699 33.1709 72.9097C33.0977 72.9406 33.0228 72.9715 32.9463 73.0024C32.8714 73.0334 32.7957 73.0488 32.7192 73.0488C32.5581 73.0488 32.4067 73.0203 32.2651 72.9634C32.1235 72.9064 31.999 72.8258 31.8916 72.7217C31.7858 72.6159 31.702 72.4881 31.6401 72.3384C31.5799 72.187 31.5498 72.0177 31.5498 71.8306V70.3853H32.2139V71.8306C32.2139 71.9233 32.2269 72.0047 32.2529 72.0747C32.2806 72.1431 32.3172 72.2008 32.3628 72.248C32.4084 72.2936 32.4613 72.3278 32.5215 72.3506C32.5833 72.3734 32.6493 72.3848 32.7192 72.3848C32.7876 72.3848 32.8519 72.3693 32.9121 72.3384C32.974 72.3058 33.0277 72.2635 33.0732 72.2114C33.1188 72.1593 33.1546 72.1007 33.1807 72.0356C33.2067 71.9689 33.2197 71.9006 33.2197 71.8306V70.3853H33.8911V72.6704C33.8895 72.8543 33.8537 73.0269 33.7837 73.188C33.7137 73.3491 33.6177 73.4899 33.4956 73.6104C33.3752 73.7308 33.2344 73.826 33.0732 73.896C32.9121 73.966 32.7396 74.001 32.5557 74.001L32.2139 73.9961ZM35.6685 70.5488C35.6685 70.404 35.6961 70.2681 35.7515 70.1411C35.8068 70.0142 35.8817 69.9035 35.9761 69.8091C36.0721 69.7131 36.1836 69.6374 36.3105 69.582C36.4375 69.5267 36.5734 69.499 36.7183 69.499H38.3247V70.1997H36.7183C36.6694 70.1997 36.6239 70.2087 36.5815 70.2266C36.5392 70.2445 36.5018 70.2697 36.4692 70.3022C36.4383 70.3332 36.4139 70.3698 36.396 70.4121C36.3781 70.4544 36.3691 70.5 36.3691 70.5488C36.3691 70.5977 36.3781 70.644 36.396 70.688C36.4139 70.7303 36.4383 70.7677 36.4692 70.8003C36.5018 70.8312 36.5392 70.8556 36.5815 70.8735C36.6239 70.8914 36.6694 70.9004 36.7183 70.9004H37.4189C37.5638 70.9004 37.6997 70.9281 37.8267 70.9834C37.9552 71.0371 38.0667 71.112 38.1611 71.208C38.2572 71.3024 38.332 71.4139 38.3857 71.5425C38.4411 71.6694 38.4688 71.8053 38.4688 71.9502C38.4688 72.0951 38.4411 72.231 38.3857 72.3579C38.332 72.4849 38.2572 72.5964 38.1611 72.6924C38.0667 72.7868 37.9552 72.8617 37.8267 72.917C37.6997 72.9723 37.5638 73 37.4189 73H35.8638V72.2993H37.4189C37.4678 72.2993 37.5133 72.2904 37.5557 72.2725C37.598 72.2546 37.6346 72.2301 37.6655 72.1992C37.6981 72.1667 37.7233 72.1292 37.7412 72.0869C37.7591 72.0446 37.7681 71.999 37.7681 71.9502C37.7681 71.9014 37.7591 71.8558 37.7412 71.8135C37.7233 71.7712 37.6981 71.7345 37.6655 71.7036C37.6346 71.6711 37.598 71.6458 37.5557 71.6279C37.5133 71.61 37.4678 71.6011 37.4189 71.6011H36.7183C36.5734 71.6011 36.4375 71.5734 36.3105 71.5181C36.1836 71.4627 36.0721 71.3879 35.9761 71.2935C35.8817 71.1974 35.8068 71.0859 35.7515 70.959C35.6961 70.8304 35.6685 70.6937 35.6685 70.5488ZM39.5015 73H38.835V70.3853H38.9961L39.2158 70.6953C39.3232 70.5977 39.4453 70.5228 39.582 70.4707C39.7188 70.417 39.8604 70.3901 40.0068 70.3901H40.5952V71.0542H40.0068C39.9368 71.0542 39.8709 71.0672 39.8091 71.0933C39.7472 71.1193 39.6935 71.1551 39.6479 71.2007C39.6024 71.2463 39.5666 71.3 39.5405 71.3618C39.5145 71.4237 39.5015 71.4896 39.5015 71.5596V73ZM41.6914 69.6748C41.6914 69.7367 41.6792 69.7944 41.6548 69.8481C41.632 69.9019 41.6003 69.9491 41.5596 69.9897C41.5189 70.0288 41.4709 70.0605 41.4155 70.085C41.3618 70.1077 41.304 70.1191 41.2422 70.1191C41.1803 70.1191 41.1217 70.1077 41.0664 70.085C41.0127 70.0605 40.9655 70.0288 40.9248 69.9897C40.8857 69.9491 40.854 69.9019 40.8296 69.8481C40.8068 69.7944 40.7954 69.7367 40.7954 69.6748C40.7954 69.6146 40.8068 69.5576 40.8296 69.5039C40.854 69.4486 40.8857 69.4014 40.9248 69.3623C40.9655 69.3216 41.0127 69.2899 41.0664 69.2671C41.1217 69.2427 41.1803 69.2305 41.2422 69.2305C41.304 69.2305 41.3618 69.2427 41.4155 69.2671C41.4709 69.2899 41.5189 69.3216 41.5596 69.3623C41.6003 69.4014 41.632 69.4486 41.6548 69.5039C41.6792 69.5576 41.6914 69.6146 41.6914 69.6748ZM41.5767 73H40.9053V70.3853H41.5767V73ZM42.7534 73H42.0869V70.3853H42.248L42.4678 70.6953C42.5752 70.5977 42.6973 70.5228 42.834 70.4707C42.9707 70.417 43.1123 70.3901 43.2588 70.3901H43.8472V71.0542H43.2588C43.1888 71.0542 43.1229 71.0672 43.061 71.0933C42.9992 71.1193 42.9455 71.1551 42.8999 71.2007C42.8543 71.2463 42.8185 71.3 42.7925 71.3618C42.7664 71.4237 42.7534 71.4896 42.7534 71.5596V73ZM46.6401 73H46.479L46.2202 72.6411C46.1567 72.6981 46.0892 72.7518 46.0176 72.8022C45.9476 72.8511 45.8735 72.8942 45.7954 72.9316C45.7173 72.9674 45.6367 72.9959 45.5537 73.0171C45.4723 73.0382 45.3893 73.0488 45.3047 73.0488C45.1208 73.0488 44.9474 73.0179 44.7847 72.9561C44.6235 72.8942 44.4819 72.8047 44.3599 72.6875C44.2394 72.5687 44.1442 72.4238 44.0742 72.2529C44.0042 72.082 43.9692 71.8875 43.9692 71.6694C43.9692 71.466 44.0042 71.2796 44.0742 71.1104C44.1442 70.9395 44.2394 70.793 44.3599 70.6709C44.4819 70.5488 44.6235 70.4544 44.7847 70.3877C44.9474 70.3193 45.1208 70.2852 45.3047 70.2852C45.3893 70.2852 45.4731 70.2957 45.5562 70.3169C45.6392 70.3381 45.7197 70.3674 45.7979 70.4048C45.876 70.4422 45.95 70.4862 46.02 70.5366C46.0916 70.5871 46.1584 70.6416 46.2202 70.7002L46.479 70.3901H46.6401V73ZM45.9688 71.6694C45.9688 71.5783 45.9508 71.4904 45.915 71.4058C45.8809 71.3195 45.8337 71.2438 45.7734 71.1787C45.7132 71.112 45.6424 71.0591 45.561 71.02C45.4813 70.9793 45.3958 70.959 45.3047 70.959C45.2135 70.959 45.1273 70.9744 45.0459 71.0054C44.9661 71.0363 44.8962 71.0819 44.8359 71.1421C44.7773 71.2023 44.731 71.2772 44.6968 71.3667C44.6626 71.4546 44.6455 71.5555 44.6455 71.6694C44.6455 71.7834 44.6626 71.8851 44.6968 71.9746C44.731 72.0625 44.7773 72.1366 44.8359 72.1968C44.8962 72.257 44.9661 72.3026 45.0459 72.3335C45.1273 72.3644 45.2135 72.3799 45.3047 72.3799C45.3958 72.3799 45.4813 72.3604 45.561 72.3213C45.6424 72.2806 45.7132 72.2277 45.7734 72.1626C45.8337 72.0959 45.8809 72.0202 45.915 71.9355C45.9508 71.8493 45.9688 71.7606 45.9688 71.6694ZM50.4756 73H49.8115V71.3398C49.8115 71.2943 49.8026 71.2511 49.7847 71.2104C49.7684 71.1698 49.7448 71.134 49.7139 71.103C49.6829 71.0721 49.6471 71.0485 49.6064 71.0322C49.5658 71.0143 49.5226 71.0054 49.4771 71.0054C49.4315 71.0054 49.3883 71.0143 49.3477 71.0322C49.3086 71.0485 49.2736 71.0721 49.2427 71.103C49.2134 71.134 49.1898 71.1698 49.1719 71.2104C49.1556 71.2511 49.1475 71.2943 49.1475 71.3398V73H48.481V71.3398C48.481 71.2943 48.472 71.2511 48.4541 71.2104C48.4378 71.1698 48.4142 71.134 48.3833 71.103C48.3524 71.0721 48.3166 71.0485 48.2759 71.0322C48.2352 71.0143 48.1921 71.0054 48.1465 71.0054C48.1009 71.0054 48.0578 71.0143 48.0171 71.0322C47.978 71.0485 47.943 71.0721 47.9121 71.103C47.8828 71.134 47.8592 71.1698 47.8413 71.2104C47.825 71.2511 47.8169 71.2943 47.8169 71.3398V73H47.1504V70.3853H47.3115L47.4922 70.5854C47.585 70.5073 47.6867 70.4471 47.7974 70.4048C47.9097 70.3608 48.026 70.3389 48.1465 70.3389C48.2686 70.3389 48.3874 70.3617 48.5029 70.4072C48.6201 70.4528 48.7227 70.5317 48.8105 70.644C48.8512 70.5887 48.8976 70.5415 48.9497 70.5024C49.0018 70.4634 49.0563 70.4316 49.1133 70.4072C49.1719 70.3828 49.2321 70.3657 49.2939 70.356C49.3558 70.3446 49.4168 70.3389 49.4771 70.3389C49.6154 70.3389 49.7448 70.3649 49.8652 70.417C49.9873 70.4691 50.0931 70.5407 50.1826 70.6318C50.2738 70.7214 50.3454 70.8271 50.3975 70.9492C50.4495 71.0713 50.4756 71.2015 50.4756 71.3398V73ZM55.2363 73H54.4868L53.1367 70.6953V73H52.436V69.499H53.1855L54.5356 71.8062V69.499H55.2363V73ZM58.3101 73H58.1489L57.8901 72.6411C57.8267 72.6981 57.7591 72.7518 57.6875 72.8022C57.6175 72.8511 57.5435 72.8942 57.4653 72.9316C57.3872 72.9674 57.3066 72.9959 57.2236 73.0171C57.1423 73.0382 57.0592 73.0488 56.9746 73.0488C56.7907 73.0488 56.6174 73.0179 56.4546 72.9561C56.2935 72.8942 56.1519 72.8047 56.0298 72.6875C55.9093 72.5687 55.8141 72.4238 55.7441 72.2529C55.6742 72.082 55.6392 71.8875 55.6392 71.6694C55.6392 71.466 55.6742 71.2796 55.7441 71.1104C55.8141 70.9395 55.9093 70.793 56.0298 70.6709C56.1519 70.5488 56.2935 70.4544 56.4546 70.3877C56.6174 70.3193 56.7907 70.2852 56.9746 70.2852C57.0592 70.2852 57.1431 70.2957 57.2261 70.3169C57.3091 70.3381 57.3896 70.3674 57.4678 70.4048C57.5459 70.4422 57.62 70.4862 57.6899 70.5366C57.7616 70.5871 57.8283 70.6416 57.8901 70.7002L58.1489 70.3901H58.3101V73ZM57.6387 71.6694C57.6387 71.5783 57.6208 71.4904 57.585 71.4058C57.5508 71.3195 57.5036 71.2438 57.4434 71.1787C57.3831 71.112 57.3123 71.0591 57.231 71.02C57.1512 70.9793 57.0658 70.959 56.9746 70.959C56.8835 70.959 56.7972 70.9744 56.7158 71.0054C56.6361 71.0363 56.5661 71.0819 56.5059 71.1421C56.4473 71.2023 56.4009 71.2772 56.3667 71.3667C56.3325 71.4546 56.3154 71.5555 56.3154 71.6694C56.3154 71.7834 56.3325 71.8851 56.3667 71.9746C56.4009 72.0625 56.4473 72.1366 56.5059 72.1968C56.5661 72.257 56.6361 72.3026 56.7158 72.3335C56.7972 72.3644 56.8835 72.3799 56.9746 72.3799C57.0658 72.3799 57.1512 72.3604 57.231 72.3213C57.3123 72.2806 57.3831 72.2277 57.4434 72.1626C57.5036 72.0959 57.5508 72.0202 57.585 71.9355C57.6208 71.8493 57.6387 71.7606 57.6387 71.6694ZM60.6807 71.6694C60.6807 71.5783 60.6628 71.4904 60.627 71.4058C60.5928 71.3195 60.5456 71.2438 60.4854 71.1787C60.4251 71.112 60.3543 71.0591 60.2729 71.02C60.1932 70.9793 60.1077 70.959 60.0166 70.959C59.9255 70.959 59.8392 70.9744 59.7578 71.0054C59.6781 71.0363 59.6081 71.0819 59.5479 71.1421C59.4893 71.2023 59.4429 71.2772 59.4087 71.3667C59.3745 71.4546 59.3574 71.5555 59.3574 71.6694C59.3574 71.7785 59.3745 71.877 59.4087 71.9648C59.4429 72.0511 59.4893 72.1252 59.5479 72.187C59.6081 72.2489 59.6781 72.2969 59.7578 72.3311C59.8392 72.3636 59.9255 72.3799 60.0166 72.3799C60.1077 72.3799 60.1932 72.3604 60.2729 72.3213C60.3543 72.2806 60.4251 72.2277 60.4854 72.1626C60.5456 72.0959 60.5928 72.0202 60.627 71.9355C60.6628 71.8493 60.6807 71.7606 60.6807 71.6694ZM61.3521 72.6704C61.3521 72.8543 61.3171 73.0269 61.2471 73.188C61.1771 73.3491 61.0811 73.4899 60.959 73.6104C60.8385 73.7308 60.6969 73.826 60.5342 73.896C60.373 73.966 60.2005 74.001 60.0166 74.001L59.6821 73.9961V73.3296L60.0117 73.3345C60.1159 73.3345 60.2046 73.3206 60.2778 73.293C60.3511 73.2669 60.4129 73.2303 60.4634 73.1831C60.5138 73.1375 60.5537 73.0846 60.583 73.0244C60.6139 72.9642 60.6383 72.9007 60.6562 72.834C60.6302 72.8763 60.5928 72.9113 60.5439 72.939C60.4951 72.965 60.4406 72.9862 60.3804 73.0024C60.3218 73.0203 60.2599 73.0326 60.1948 73.0391C60.1313 73.0456 60.0719 73.0488 60.0166 73.0488C59.8327 73.0488 59.6593 73.0171 59.4966 72.9536C59.3354 72.8901 59.1938 72.7998 59.0718 72.6826C58.9513 72.5638 58.8561 72.4189 58.7861 72.248C58.7161 72.0771 58.6812 71.8843 58.6812 71.6694C58.6812 71.4725 58.7161 71.2894 58.7861 71.1201C58.8561 70.9508 58.9513 70.8044 59.0718 70.6807C59.1938 70.557 59.3354 70.4601 59.4966 70.3901C59.6593 70.3201 59.8327 70.2852 60.0166 70.2852C60.1012 70.2852 60.1851 70.2957 60.2681 70.3169C60.3511 70.3381 60.4316 70.3674 60.5098 70.4048C60.5879 70.4422 60.6619 70.4862 60.7319 70.5366C60.8035 70.5871 60.8703 70.6416 60.9321 70.7002L61.1909 70.3901H61.3521V72.6704ZM64.394 73H64.2329L63.9741 72.6411C63.9106 72.6981 63.8431 72.7518 63.7715 72.8022C63.7015 72.8511 63.6274 72.8942 63.5493 72.9316C63.4712 72.9674 63.3906 72.9959 63.3076 73.0171C63.2262 73.0382 63.1432 73.0488 63.0586 73.0488C62.8747 73.0488 62.7013 73.0179 62.5386 72.9561C62.3774 72.8942 62.2358 72.8047 62.1138 72.6875C61.9933 72.5687 61.8981 72.4238 61.8281 72.2529C61.7581 72.082 61.7231 71.8875 61.7231 71.6694C61.7231 71.466 61.7581 71.2796 61.8281 71.1104C61.8981 70.9395 61.9933 70.793 62.1138 70.6709C62.2358 70.5488 62.3774 70.4544 62.5386 70.3877C62.7013 70.3193 62.8747 70.2852 63.0586 70.2852C63.1432 70.2852 63.2271 70.2957 63.3101 70.3169C63.3931 70.3381 63.4736 70.3674 63.5518 70.4048C63.6299 70.4422 63.7039 70.4862 63.7739 70.5366C63.8455 70.5871 63.9123 70.6416 63.9741 70.7002L64.2329 70.3901H64.394V73ZM63.7227 71.6694C63.7227 71.5783 63.7048 71.4904 63.6689 71.4058C63.6348 71.3195 63.5876 71.2438 63.5273 71.1787C63.4671 71.112 63.3963 71.0591 63.3149 71.02C63.2352 70.9793 63.1497 70.959 63.0586 70.959C62.9674 70.959 62.8812 70.9744 62.7998 71.0054C62.7201 71.0363 62.6501 71.0819 62.5898 71.1421C62.5312 71.2023 62.4849 71.2772 62.4507 71.3667C62.4165 71.4546 62.3994 71.5555 62.3994 71.6694C62.3994 71.7834 62.4165 71.8851 62.4507 71.9746C62.4849 72.0625 62.5312 72.1366 62.5898 72.1968C62.6501 72.257 62.7201 72.3026 62.7998 72.3335C62.8812 72.3644 62.9674 72.3799 63.0586 72.3799C63.1497 72.3799 63.2352 72.3604 63.3149 72.3213C63.3963 72.2806 63.4671 72.2277 63.5273 72.1626C63.5876 72.0959 63.6348 72.0202 63.6689 71.9355C63.7048 71.8493 63.7227 71.7606 63.7227 71.6694ZM65.5708 73H64.9043V70.3853H65.0654L65.2852 70.6392C65.3926 70.5415 65.5138 70.4666 65.6489 70.4146C65.7856 70.3608 65.9281 70.334 66.0762 70.334C66.2357 70.334 66.3862 70.3649 66.5278 70.4268C66.6694 70.487 66.7931 70.5708 66.8989 70.6782C67.0047 70.784 67.0877 70.9085 67.1479 71.0518C67.2098 71.1934 67.2407 71.3447 67.2407 71.5059V73H66.5742V71.5059C66.5742 71.4375 66.5612 71.3732 66.5352 71.313C66.5091 71.2511 66.4733 71.1974 66.4277 71.1519C66.3822 71.1063 66.3293 71.0705 66.269 71.0444C66.2088 71.0184 66.1445 71.0054 66.0762 71.0054C66.0062 71.0054 65.9403 71.0184 65.8784 71.0444C65.8166 71.0705 65.7629 71.1063 65.7173 71.1519C65.6717 71.1974 65.6359 71.2511 65.6099 71.313C65.5838 71.3732 65.5708 71.4375 65.5708 71.5059V73ZM70.2437 73H70.0825L69.8237 72.6411C69.7603 72.6981 69.6927 72.7518 69.6211 72.8022C69.5511 72.8511 69.4771 72.8942 69.3989 72.9316C69.3208 72.9674 69.2402 72.9959 69.1572 73.0171C69.0758 73.0382 68.9928 73.0488 68.9082 73.0488C68.7243 73.0488 68.5509 73.0146 68.3882 72.9463C68.2271 72.8763 68.0854 72.7803 67.9634 72.6582C67.8429 72.5345 67.7477 72.3888 67.6777 72.2212C67.6077 72.0519 67.5728 71.868 67.5728 71.6694C67.5728 71.4725 67.6077 71.2894 67.6777 71.1201C67.7477 70.9508 67.8429 70.8044 67.9634 70.6807C68.0854 70.557 68.2271 70.4601 68.3882 70.3901C68.5509 70.3201 68.7243 70.2852 68.9082 70.2852C68.9668 70.2852 69.027 70.29 69.0889 70.2998C69.1523 70.3096 69.2134 70.3258 69.272 70.3486C69.3322 70.3698 69.3883 70.3983 69.4404 70.4341C69.4925 70.4699 69.5365 70.5138 69.5723 70.5659V69.3452H70.2437V73ZM69.5723 71.6694C69.5723 71.5783 69.5544 71.4904 69.5186 71.4058C69.4844 71.3195 69.4372 71.2438 69.377 71.1787C69.3167 71.112 69.2459 71.0591 69.1646 71.02C69.0848 70.9793 68.9993 70.959 68.9082 70.959C68.8171 70.959 68.7308 70.9753 68.6494 71.0078C68.5697 71.0404 68.4997 71.0876 68.4395 71.1494C68.3809 71.2096 68.3345 71.2837 68.3003 71.3716C68.2661 71.4595 68.249 71.5588 68.249 71.6694C68.249 71.7655 68.2661 71.8566 68.3003 71.9429C68.3345 72.0291 68.3809 72.1048 68.4395 72.1699C68.4997 72.235 68.5697 72.2863 68.6494 72.3237C68.7308 72.3612 68.8171 72.3799 68.9082 72.3799C68.9993 72.3799 69.0848 72.3604 69.1646 72.3213C69.2459 72.2806 69.3167 72.2277 69.377 72.1626C69.4372 72.0959 69.4844 72.0202 69.5186 71.9355C69.5544 71.8493 69.5723 71.7606 69.5723 71.6694ZM71.4253 73H70.7539V69.3452H71.4253V73ZM74.4673 73H74.3062L74.0474 72.6411C73.9839 72.6981 73.9163 72.7518 73.8447 72.8022C73.7747 72.8511 73.7007 72.8942 73.6226 72.9316C73.5444 72.9674 73.4639 72.9959 73.3809 73.0171C73.2995 73.0382 73.2165 73.0488 73.1318 73.0488C72.9479 73.0488 72.7746 73.0179 72.6118 72.9561C72.4507 72.8942 72.3091 72.8047 72.187 72.6875C72.0666 72.5687 71.9714 72.4238 71.9014 72.2529C71.8314 72.082 71.7964 71.8875 71.7964 71.6694C71.7964 71.466 71.8314 71.2796 71.9014 71.1104C71.9714 70.9395 72.0666 70.793 72.187 70.6709C72.3091 70.5488 72.4507 70.4544 72.6118 70.3877C72.7746 70.3193 72.9479 70.2852 73.1318 70.2852C73.2165 70.2852 73.3003 70.2957 73.3833 70.3169C73.4663 70.3381 73.5469 70.3674 73.625 70.4048C73.7031 70.4422 73.7772 70.4862 73.8472 70.5366C73.9188 70.5871 73.9855 70.6416 74.0474 70.7002L74.3062 70.3901H74.4673V73ZM73.7959 71.6694C73.7959 71.5783 73.778 71.4904 73.7422 71.4058C73.708 71.3195 73.6608 71.2438 73.6006 71.1787C73.5404 71.112 73.4696 71.0591 73.3882 71.02C73.3084 70.9793 73.223 70.959 73.1318 70.959C73.0407 70.959 72.9544 70.9744 72.873 71.0054C72.7933 71.0363 72.7233 71.0819 72.6631 71.1421C72.6045 71.2023 72.5581 71.2772 72.5239 71.3667C72.4897 71.4546 72.4727 71.5555 72.4727 71.6694C72.4727 71.7834 72.4897 71.8851 72.5239 71.9746C72.5581 72.0625 72.6045 72.1366 72.6631 72.1968C72.7233 72.257 72.7933 72.3026 72.873 72.3335C72.9544 72.3644 73.0407 72.3799 73.1318 72.3799C73.223 72.3799 73.3084 72.3604 73.3882 72.3213C73.4696 72.2806 73.5404 72.2277 73.6006 72.1626C73.6608 72.0959 73.708 72.0202 73.7422 71.9355C73.778 71.8493 73.7959 71.7606 73.7959 71.6694Z" fill="#CE8DF6"/>
</svg>
