<svg width="56" height="56" viewBox="0 0 56 56" fill="none" xmlns="http://www.w3.org/2000/svg">
<path d="M40.3516 40H35.3242V22C35.3242 21.6484 35.2539 21.3203 35.1133 21.0156C34.9844 20.7109 34.8027 20.4473 34.5684 20.2246C34.3457 19.9902 34.082 19.8086 33.7773 19.6797C33.4727 19.5508 33.1445 19.4863 32.793 19.4863C32.4414 19.4863 32.1133 19.5508 31.8086 19.6797C31.5039 19.8086 31.2344 19.9902 31 20.2246C30.7773 20.4473 30.6016 20.7109 30.4727 21.0156C30.3438 21.3203 30.2793 21.6484 30.2793 22V40H25.2344V22C25.2344 21.6484 25.1699 21.3203 25.041 21.0156C24.9121 20.7109 24.7305 20.4473 24.4961 20.2246C24.2734 19.9902 24.0098 19.8086 23.7051 19.6797C23.4004 19.5508 23.0723 19.4863 22.7207 19.4863C22.3691 19.4863 22.041 19.5508 21.7363 19.6797C21.4316 19.8086 21.1621 19.9902 20.9277 20.2246C20.7051 20.4473 20.5293 20.7109 20.4004 21.0156C20.2715 21.3203 20.207 21.6484 20.207 22V40H15.1621V22C15.1621 20.957 15.3555 19.9785 15.7422 19.0645C16.1406 18.1387 16.6797 17.3359 17.3594 16.6562C18.0508 15.9648 18.8535 15.4258 19.7676 15.0391C20.6934 14.6406 21.6777 14.4414 22.7207 14.4414C23.6582 14.4414 24.5605 14.6113 25.4277 14.9512C26.2949 15.2793 27.0742 15.7598 27.7656 16.3926C28.457 15.7598 29.2305 15.2793 30.0859 14.9512C30.9531 14.6113 31.8555 14.4414 32.793 14.4414C33.8359 14.4414 34.8145 14.6406 35.7285 15.0391C36.6543 15.4258 37.457 15.9648 38.1367 16.6562C38.8281 17.3359 39.3672 18.1387 39.7539 19.0645C40.1523 19.9785 40.3516 20.957 40.3516 22V40Z" fill="#61DAFB"/>
</svg>
